<svg width="94" height="94" viewBox="0 0 94 94" fill="none" xmlns="http://www.w3.org/2000/svg">
<path d="M83.4616 55.8281L83.0408 51.5993L82.9006 51.6121L82.7646 51.6376L83.4616 55.8281ZM83.4616 55.8281L83.8866 60.0568L84.0268 60.0441L84.1628 60.0228L83.4616 55.8281ZM66.2916 79.1266L68.9818 75.8371L68.9478 75.8116L66.2916 79.1266ZM66.2916 79.1266L63.6013 82.4161L63.6353 82.4458L66.2916 79.1266ZM27.2086 79.1266L24.5183 75.8413L24.4503 75.8966L24.3866 75.9518L27.2086 79.1266ZM27.2086 79.1266L29.8988 82.4203L29.9668 82.3651L30.0306 82.3056L27.2086 79.1266ZM10.0343 37.6721V33.4221H9.82184L9.61359 33.4433L10.0343 37.6721ZM10.0343 37.6721V41.9221H10.2468L10.4593 41.9008L10.0343 37.6721ZM60.0568 9.60934C59.9867 8.79186 59.8861 7.97686 59.7636 7.16559C59.6324 6.27247 59.3599 5.40595 58.9561 4.59859L51.4038 8.50009C51.3061 8.30884 51.3273 8.24084 51.3826 8.57659C51.4463 8.95484 51.5016 9.48184 51.5993 10.4593L60.0568 9.60934ZM60.4606 13.6468C60.7283 13.9953 60.6391 14.1526 60.4903 13.3238C60.3501 12.5333 60.2396 11.4241 60.0568 9.60934L51.5951 10.4551C51.7651 12.1296 51.9096 13.6341 52.1263 14.8326C52.3346 15.9801 52.7001 17.4888 53.6988 18.7978L60.4606 13.6468ZM60.4606 13.6468L53.6988 18.7978C54.6084 19.9914 55.8177 20.923 57.2039 21.4978C58.5901 22.0725 60.1038 22.2701 61.5911 22.0703L60.4606 13.6468ZM63.5971 11.0756C62.6446 11.8806 61.6651 12.6531 60.6603 13.3918C59.9676 13.8721 60.0228 13.7021 60.4606 13.6468L61.5911 22.0703C63.2231 21.8493 64.5491 21.0418 65.5096 20.3703C66.5083 19.6818 67.6771 18.7213 68.9776 17.6546L63.5971 11.0756ZM67.9151 8.31309C67.0595 8.59768 66.2547 9.01658 65.5308 9.55409C64.9358 9.97909 64.2686 10.5273 63.5971 11.0756L68.9776 17.6546C69.7383 17.0341 70.1506 16.6983 70.4651 16.4773C70.7413 16.2776 70.7031 16.3456 70.5033 16.4093L67.9151 8.31309ZM73.8821 8.61059C71.9946 7.79265 69.8746 7.68695 67.9151 8.31309L70.5033 16.4093L73.8821 8.61059ZM77.9026 11.7896C77.3303 11.2012 76.7393 10.6314 76.1303 10.0811C75.4623 9.47447 74.702 8.97808 73.8778 8.61059L70.5033 16.4093C70.3078 16.3243 70.2781 16.2563 70.5331 16.4816C70.8221 16.7366 71.2003 17.1063 71.8931 17.7991L77.9026 11.7896ZM81.7021 15.5891L77.9026 11.7896L71.8931 17.7991L75.6926 21.5986L81.7021 15.5891ZM84.8811 19.6096C84.5136 18.7855 84.0172 18.0251 83.4106 17.3571C82.8602 16.7496 82.2904 16.16 81.7021 15.5891L75.6926 21.6028C76.3853 22.2956 76.7551 22.6738 77.0101 22.9628C77.2353 23.2178 77.1673 23.1881 77.0823 22.9926L84.8811 19.6096ZM85.1786 25.5766C85.8047 23.6171 85.699 21.4971 84.8811 19.6096L77.0823 22.9926L85.1786 25.5766ZM82.4161 29.8946C82.9439 29.2665 83.4513 28.6216 83.9376 27.9608C84.3881 27.3318 84.8726 26.5498 85.1786 25.5766L77.0823 22.9926C77.1461 22.7928 77.2098 22.7503 77.0143 23.0308C76.7933 23.3411 76.4618 23.7533 75.8371 24.5141L82.4161 29.8946ZM79.8448 33.0353C79.7896 33.4731 79.6196 33.5241 80.0998 32.8313C80.5546 32.1726 81.2601 31.3056 82.4161 29.8946L75.8371 24.5141C74.7746 25.8146 73.8098 26.9833 73.1171 27.9821C72.4498 28.9426 71.6423 30.2686 71.4213 31.9006L79.8448 33.0353ZM79.8448 33.0353L71.4213 31.9006C71.2216 33.3879 71.4191 34.9016 71.9939 36.2878C72.5687 37.674 73.5002 38.8833 74.6938 39.7928L79.8448 33.0353ZM83.8823 33.4391C82.6396 33.3351 81.4007 33.1891 80.1678 33.0013C79.3391 32.8526 79.4963 32.7676 79.8448 33.0353L74.6938 39.7928C76.0028 40.7916 77.5073 41.1571 78.6633 41.3653C79.8576 41.5778 81.3621 41.7266 83.0366 41.8966L83.8823 33.4391ZM88.8931 34.5356C88.0857 34.1318 87.2192 33.8592 86.3261 33.7281C85.5148 33.6056 84.6998 33.5092 83.8823 33.4391L83.0366 41.8966C83.6658 41.9519 84.2936 42.0227 84.9193 42.1091C85.2593 42.1686 85.1871 42.1898 84.9958 42.0921L88.8931 34.5356ZM92.9008 38.9683C92.1455 37.0544 90.7215 35.4794 88.8931 34.5356L85.0001 42.1006L92.9008 38.9683ZM93.4958 44.0598C93.4958 43.1928 93.4958 42.3301 93.4491 41.5991C93.4061 40.697 93.2196 39.8075 92.8966 38.9641L85.0001 42.1006C84.9236 41.9008 84.9491 41.8328 84.9746 42.1728C85.0001 42.5553 85.0001 43.0866 85.0001 44.0683L93.4958 44.0598ZM93.4958 49.4318V44.0598H84.9958V49.4318H93.4958ZM92.9008 54.5233C93.2748 53.5756 93.3981 52.6661 93.4491 51.8883C93.4958 51.1616 93.4958 50.2988 93.4958 49.4318H84.9958C84.9958 50.4136 84.9958 50.9448 84.9703 51.3273C84.9448 51.6673 84.9193 51.5993 84.9958 51.3996L92.9008 54.5233ZM88.8931 58.9561C90.7215 58.0123 92.1455 56.4373 92.9008 54.5233L85.0001 51.4038L88.8931 58.9561ZM83.8823 60.0526C84.7493 59.9676 85.6036 59.8826 86.3261 59.7636C87.0911 59.6361 87.9836 59.4236 88.8931 58.9561L85.0001 51.4038C85.1871 51.3061 85.2593 51.3273 84.9236 51.3826C84.2981 51.4723 83.6703 51.5446 83.0408 51.5993L83.8823 60.0526ZM79.8491 60.4563C79.4963 60.7241 79.3391 60.6391 80.1678 60.4903C80.9583 60.3501 82.0676 60.2353 83.8823 60.0526L83.0366 51.5951C81.3663 51.7651 79.8576 51.9096 78.6633 52.1263C77.5116 52.3346 76.0028 52.7001 74.6938 53.6988L79.8491 60.4563ZM79.8491 60.4563L74.6938 53.6988C73.5002 54.6084 72.5687 55.8177 71.9939 57.2039C71.4191 58.5901 71.2216 60.1038 71.4213 61.5911L79.8491 60.4563ZM82.4161 63.5928C81.6112 62.6417 80.8386 61.6637 80.0998 60.6603C79.6196 59.9676 79.7938 60.0186 79.8491 60.4563L71.4213 61.5911C71.6423 63.2231 72.4498 64.5491 73.1213 65.5096C73.8141 66.5083 74.7746 67.6771 75.8371 68.9776L82.4161 63.5928ZM85.1786 67.9108C84.8936 67.0568 84.4747 66.2534 83.9376 65.5308C83.5126 64.9316 82.9643 64.2686 82.4161 63.5928L75.8371 68.9776C76.4576 69.7383 76.7933 70.1463 77.0143 70.4608C77.2141 70.7371 77.1503 70.7031 77.0823 70.5033L85.1786 67.9108ZM84.8811 73.8821C85.7001 71.9934 85.8058 69.8716 85.1786 67.9108L77.0823 70.5033L84.8811 73.8821ZM81.7021 77.9026C82.3183 77.2863 82.9261 76.6828 83.4106 76.1303C83.9206 75.5438 84.4731 74.8171 84.8811 73.8778L77.0823 70.4991C77.1673 70.3036 77.2353 70.2781 77.0101 70.5331C76.7551 70.8221 76.3853 71.1961 75.6926 71.8931L81.7021 77.9026ZM77.9026 81.6978L81.7021 77.9026L75.6926 71.8931L71.8931 75.6883L77.9026 81.6978ZM73.8821 84.8811C74.7065 84.5123 75.4669 84.0145 76.1346 83.4063C76.6828 82.9261 77.2906 82.3141 77.9026 81.6978L71.8931 75.6883C71.4521 76.14 70.9986 76.5794 70.5331 77.0058C70.2781 77.2353 70.3078 77.1673 70.5033 77.0823L73.8821 84.8811ZM67.9151 85.1786C69.8746 85.8047 71.9946 85.699 73.8821 84.8811L70.5033 77.0823L67.9151 85.1786ZM63.5971 82.4161C64.2686 82.9643 64.9316 83.5126 65.5308 83.9376C66.1598 84.3838 66.9418 84.8683 67.9151 85.1786L70.5033 77.0823C70.7031 77.1461 70.7413 77.2098 70.4608 77.0143C69.9556 76.6358 69.461 76.2432 68.9776 75.8371L63.5971 82.4161ZM60.4606 79.8491C60.0228 79.7853 59.9676 79.6153 60.6603 80.0956C61.3191 80.5546 62.1818 81.2558 63.5928 82.4118L68.9776 75.8371C67.6771 74.7703 66.5083 73.8098 65.5096 73.1171C64.5491 72.4456 63.2231 71.6423 61.5911 71.4213L60.4606 79.8491ZM60.4606 79.8491L61.5911 71.4213C60.1038 71.2216 58.5901 71.4191 57.2039 71.9939C55.8177 72.5687 54.6084 73.5002 53.6988 74.6938L60.4606 79.8491ZM60.0526 83.8823C60.2353 82.0676 60.3501 80.9541 60.4903 80.1678C60.6391 79.3391 60.7241 79.4921 60.4563 79.8448L53.6988 74.6896C52.7001 75.9986 52.3346 77.5073 52.1263 78.6591C51.9138 79.8576 51.7693 81.3621 51.5993 83.0366L60.0526 83.8823ZM58.9518 88.8931C59.4193 87.9836 59.6318 87.0911 59.7593 86.3261C59.8868 85.6036 59.9633 84.7493 60.0526 83.8823L51.5993 83.0366C51.5433 83.6675 51.4696 84.2925 51.3783 84.9193C51.3231 85.2593 51.3018 85.1871 51.3996 84.9958L58.9518 88.8931ZM54.5276 92.9008C56.4384 92.1437 58.0101 90.72 58.9518 88.8931L51.4038 85.0001L54.5276 92.9008ZM49.4276 93.4958C50.2988 93.4958 51.1616 93.4958 51.8926 93.4491C52.6661 93.3981 53.5756 93.2833 54.5276 92.9008L51.4038 85.0001C51.6036 84.9236 51.6716 84.9491 51.3316 84.9746C50.7001 85.0007 50.068 85.0092 49.4361 85.0001L49.4276 93.4958ZM44.0598 93.4958H49.4276L49.4318 84.9958H44.0598V93.4958ZM38.9683 92.9008C39.9161 93.2748 40.8256 93.3981 41.6033 93.4491C42.3301 93.4958 43.1928 93.4958 44.0598 93.4958V84.9958C43.0781 84.9958 42.5468 84.9958 42.1643 84.9703C41.8243 84.9448 41.8923 84.9193 42.0921 84.9958L38.9683 92.9008ZM34.5356 88.8931C35.4794 90.7215 37.0544 92.1455 38.9683 92.9008L42.0921 84.9958L34.5356 88.8931ZM33.4391 83.8823C33.5241 84.7493 33.6091 85.6036 33.7281 86.3261C33.8556 87.0911 34.0681 87.9836 34.5356 88.8931L42.1006 85.0001C42.1983 85.1871 42.1771 85.2593 42.1218 84.9236C42.0321 84.2981 41.9598 83.6703 41.9051 83.0408L33.4391 83.8823ZM33.0353 79.8448C32.7676 79.4963 32.8526 79.3348 33.0013 80.1678C33.1416 80.9541 33.2563 82.0676 33.4391 83.8823L41.8966 83.0366C41.7266 81.3621 41.5821 79.8576 41.3653 78.6591C41.1571 77.5116 40.7916 76.0028 39.7928 74.6938L33.0353 79.8448ZM33.0353 79.8448L39.7928 74.6938C38.8833 73.5002 37.674 72.5687 36.2878 71.9939C34.9016 71.4191 33.3879 71.2216 31.9006 71.4213L33.0353 79.8448ZM29.8946 82.4161C31.3098 81.2601 32.1726 80.5546 32.8313 80.0998C33.5241 79.6196 33.4731 79.7896 33.0353 79.8448L31.9006 71.4213C30.2686 71.6423 28.9426 72.4498 27.9821 73.1213C26.9833 73.8098 25.8146 74.7703 24.5141 75.8371L29.8946 82.4161ZM25.5766 85.1786C26.4321 84.894 27.2369 84.4751 27.9608 83.9376C28.5558 83.5126 29.2231 82.9643 29.8946 82.4161L24.5183 75.8413C24.0336 76.2475 23.5418 76.6401 23.0351 77.0186C22.7588 77.2183 22.7971 77.1546 22.9968 77.0866L25.5766 85.1786ZM19.6096 84.8811C21.4971 85.699 23.6171 85.8047 25.5766 85.1786L22.9883 77.0823L19.6096 84.8811ZM15.5848 81.7021C16.2011 82.3183 16.8088 82.9261 17.3613 83.4106C17.9436 83.9206 18.6703 84.4773 19.6138 84.8853L22.9883 77.0823C23.1838 77.1673 23.2136 77.2353 22.9586 77.0101C22.4931 76.5836 22.0396 76.1443 21.5986 75.6926L15.5848 81.7021ZM11.7896 77.9026L15.5891 81.7021L21.5986 75.6926L17.7991 71.8931L11.7896 77.9026ZM8.61059 73.8821C9.01434 74.8171 9.57109 75.5481 10.0811 76.1346C10.5656 76.6828 11.1733 77.2906 11.7896 77.9026L17.7991 71.8931C17.3474 71.4521 16.908 70.9986 16.4816 70.5331C16.2563 70.2781 16.3243 70.3078 16.4093 70.5033L8.61059 73.8821ZM8.31309 67.9151C7.68695 69.8746 7.79265 71.9946 8.61059 73.8821L16.4093 70.5033L8.31309 67.9151ZM11.0756 63.5971C10.5478 64.2252 10.0404 64.8701 9.55409 65.5308C9.01658 66.2547 8.59768 67.0595 8.31309 67.9151L16.4093 70.5033C16.3413 70.7031 16.2818 70.7413 16.4773 70.4608C16.6983 70.1506 17.0298 69.7383 17.6546 68.9776L11.0756 63.5971ZM13.6426 60.4563C13.7021 60.0186 13.8721 59.9676 13.3918 60.6603C12.9371 61.3191 12.2316 62.1861 11.0756 63.5971L17.6546 68.9776C18.7171 67.6771 19.6818 66.5083 20.3746 65.5096C21.0418 64.5491 21.8493 63.2231 22.0703 61.5911L13.6426 60.4563ZM13.6426 60.4563L22.0703 61.5911C22.2701 60.1038 22.0725 58.5901 21.4978 57.2039C20.923 55.8177 19.9914 54.6084 18.7978 53.6988L13.6426 60.4563ZM9.60509 60.0526C11.4241 60.2353 12.5376 60.3501 13.3238 60.4903C14.1526 60.6391 13.9953 60.7241 13.6426 60.4563L18.7978 53.6988C17.4888 52.7001 15.9843 52.3346 14.8283 52.1263C13.6341 51.9138 12.1296 51.7651 10.4508 51.5951L9.60509 60.0526ZM4.59859 58.9561C5.50809 59.4236 6.40059 59.6361 7.16559 59.7636C7.88809 59.8826 8.74234 59.9718 9.60934 60.0568L10.4508 51.5951C9.8214 51.5418 9.19782 51.4709 8.57234 51.3826C8.23234 51.3231 8.30459 51.3018 8.49584 51.3996L4.59859 58.9561ZM0.595087 54.5276C1.35044 56.4415 2.77443 58.0165 4.60284 58.9603L8.50009 51.4038L0.595087 54.5276ZM8.6726e-05 49.4361C8.6726e-05 50.3031 8.68847e-05 51.1658 0.0468369 51.8968C0.0978369 52.6703 0.216837 53.5798 0.599337 54.5318L8.50009 51.3996C8.57659 51.5993 8.55109 51.6673 8.52984 51.3273C8.50238 50.6973 8.49246 50.0667 8.50009 49.4361H8.6726e-05ZM8.6726e-05 44.0641V49.4361H8.50009V44.0641H8.6726e-05ZM0.595087 38.9683C0.273557 39.812 0.0884874 40.7015 0.0468369 41.6033C-0.00416312 42.3343 8.6726e-05 43.1971 8.6726e-05 44.0683H8.50009C8.50009 43.0823 8.50009 42.5511 8.52984 42.1686C8.55109 41.8286 8.57659 41.8966 8.50009 42.0963L0.595087 38.9683ZM4.60284 34.5441C2.77596 35.4858 1.35217 37.0575 0.595087 38.9683L8.50009 42.0963L4.60284 34.5441ZM9.61359 33.4391C8.74659 33.5283 7.89234 33.6091 7.16984 33.7366C6.40484 33.8641 5.51234 34.0766 4.60284 34.5441L8.50009 42.0963C8.30884 42.1941 8.24084 42.1728 8.57659 42.1176C9.20203 42.0279 9.82986 41.9556 10.4593 41.9008L9.61359 33.4391ZM13.6511 33.0396C14.0038 32.7718 14.1611 32.8568 13.3281 33.0056C12.5418 33.1458 11.4283 33.2606 9.61359 33.4433L10.4593 41.9008C12.1296 41.7308 13.6383 41.5863 14.8368 41.3696C15.9886 41.1613 17.4973 40.7958 18.8063 39.7971L13.6511 33.0396ZM13.6511 33.0396L18.8063 39.7971C19.9992 38.8871 20.9299 37.6775 21.5039 36.2913C22.0779 34.9052 22.2748 33.3917 22.0746 31.9048L13.6511 33.0396ZM11.0798 29.8988C12.2358 31.3098 12.9413 32.1768 13.4003 32.8356C13.8806 33.5283 13.7106 33.4773 13.6511 33.0396L22.0746 31.9048C21.8536 30.2728 21.0503 28.9511 20.3788 27.9863C19.6861 26.9876 18.7213 25.8188 17.6588 24.5183L11.0798 29.8988ZM8.31734 25.5766C8.62759 26.5541 9.10784 27.3318 9.55834 27.9651C9.98334 28.5601 10.5316 29.2273 11.0798 29.8988L17.6588 24.5183C17.2527 24.0336 16.8601 23.5418 16.4816 23.0351C16.2818 22.7588 16.3498 22.7928 16.4136 22.9926L8.31734 25.5766ZM8.61484 19.6138C7.79796 21.5001 7.69227 23.6184 8.31734 25.5766L16.4136 22.9926L8.61484 19.6138ZM11.7938 15.5891C11.1776 16.2053 10.5698 16.8088 10.0853 17.3613C9.47872 18.0294 8.98234 18.7897 8.61484 19.6138L16.4136 22.9926C16.3286 23.1881 16.2606 23.2178 16.4858 22.9586C16.7408 22.6696 17.1106 22.2956 17.8033 21.5986L11.7938 15.5891ZM15.5933 11.7938L11.7938 15.5891L17.8033 21.5986L21.6071 17.8033L15.5933 11.7938ZM19.6138 8.61059C18.7894 8.97938 18.0291 9.47721 17.3613 10.0853C16.7538 10.6357 16.1642 11.2055 15.5933 11.7938L21.6071 17.8033C22.2998 17.1063 22.6738 16.7366 22.9628 16.4858C23.2178 16.2563 23.1881 16.3243 22.9926 16.4093L19.6138 8.61059ZM25.5808 8.31309C23.6214 7.68695 21.5013 7.79265 19.6138 8.61059L22.9926 16.4093L25.5808 8.31309ZM29.8946 11.0756C29.2231 10.5273 28.5643 9.98334 27.9651 9.55834C27.2415 9.01934 26.4366 8.59899 25.5808 8.31309L22.9926 16.4093C22.7928 16.3456 22.7546 16.2818 23.0351 16.4773C23.3453 16.7026 23.7576 17.0341 24.5183 17.6588L29.8946 11.0756ZM33.0396 13.6468C33.4773 13.7063 33.5283 13.8763 32.8356 13.3961C31.8322 12.6573 30.8542 11.8848 29.9031 11.0798L24.5183 17.6588C25.8188 18.7213 26.9833 19.6818 27.9821 20.3788C28.9426 21.0461 30.2686 21.8493 31.9006 22.0703L33.0396 13.6468ZM33.0396 13.6468L31.9048 22.0703C33.3921 22.2701 34.9058 22.0725 36.292 21.4978C37.6782 20.923 38.8875 19.9914 39.7971 18.7978L33.0396 13.6468ZM33.4433 9.60934C33.2606 11.4283 33.1458 12.5418 33.0056 13.3281C32.8568 14.1568 32.7718 13.9996 33.0396 13.6468L39.7971 18.7978C40.7958 17.4888 41.1613 15.9843 41.3696 14.8326C41.5821 13.6383 41.7351 12.1296 41.9008 10.4551L33.4433 9.60934ZM34.5398 4.60284C34.1361 5.4102 33.8635 6.27672 33.7323 7.16984C33.6133 7.89234 33.5283 8.74659 33.4433 9.61359L41.9008 10.4551C41.9561 9.82585 42.027 9.20232 42.1133 8.57659C42.1728 8.23659 42.1941 8.31309 42.0963 8.50009L34.5398 4.60284ZM38.9726 0.595087C37.0586 1.35044 35.4836 2.77443 34.5398 4.60284L42.0963 8.50009L38.9726 0.595087ZM44.0641 8.6726e-05C43.1971 8.6726e-05 42.3343 8.68847e-05 41.6033 0.0468369C40.7015 0.0884874 39.812 0.273557 38.9683 0.595087L42.1006 8.50009C41.9008 8.57659 41.8328 8.55109 42.1728 8.52984C42.5553 8.50434 43.0866 8.50009 44.0683 8.50009L44.0641 8.6726e-05ZM49.4361 8.6726e-05H44.0641V8.50009H49.4361V8.6726e-05ZM54.5276 0.595087C53.6839 0.273557 52.7945 0.0884874 51.8926 0.0468369C51.1701 -0.00416312 50.3073 8.6726e-05 49.4403 8.6726e-05V8.50009C50.4221 8.50009 50.9533 8.50009 51.3358 8.52984C51.6758 8.55109 51.6036 8.57659 51.4038 8.50009L54.5276 0.595087ZM58.9603 4.60284C58.0165 2.77443 56.4415 1.35044 54.5276 0.595087L51.4038 8.50009L58.9603 4.60284ZM59.5001 46.7501C59.5001 50.1316 58.1568 53.3746 55.7657 55.7657C53.3746 58.1568 50.1316 59.5001 46.7501 59.5001V68.0001C52.3859 68.0001 57.791 65.7613 61.7761 61.7761C65.7613 57.791 68.0001 52.3859 68.0001 46.7501H59.5001ZM46.7501 34.0001C50.1316 34.0001 53.3746 35.3434 55.7657 37.7345C58.1568 40.1256 59.5001 43.3686 59.5001 46.7501H68.0001C68.0001 41.1142 65.7613 35.7092 61.7761 31.7241C57.791 27.7389 52.3859 25.5001 46.7501 25.5001V34.0001ZM34.0001 46.7501C34.0001 43.3686 35.3434 40.1256 37.7345 37.7345C40.1256 35.3434 43.3686 34.0001 46.7501 34.0001V25.5001C41.1142 25.5001 35.7092 27.7389 31.7241 31.7241C27.7389 35.7092 25.5001 41.1142 25.5001 46.7501H34.0001ZM46.7501 59.5001C43.3686 59.5001 40.1256 58.1568 37.7345 55.7657C35.3434 53.3746 34.0001 50.1316 34.0001 46.7501H25.5001C25.5001 52.3859 27.7389 57.791 31.7241 61.7761C35.7092 65.7613 41.1142 68.0001 46.7501 68.0001V59.5001Z" fill="#6C8ED9"/>
</svg>
